<svg data-v-423bf9ae="" xmlns="http://www.w3.org/2000/svg" viewBox="0 0 436 90" class="iconLeft"><!----><!----><defs data-v-423bf9ae=""><linearGradient data-v-423bf9ae="" gradientTransform="rotate(25)" id="0f2b7b20-6f8c-46fe-899d-f95652e14dae" x1="0%" y1="0%" x2="100%" y2="0%"><stop data-v-423bf9ae="" offset="0%" style="stop-color: rgb(122, 140, 227); stop-opacity: 1;"></stop><stop data-v-423bf9ae="" offset="100%" style="stop-color: rgb(12, 38, 170); stop-opacity: 1;"></stop></linearGradient></defs><g data-v-423bf9ae="" id="82e20485-1020-41ec-9459-c6def782fe6e" fill="url(#0f2b7b20-6f8c-46fe-899d-f95652e14dae)" transform="matrix(4.768705368041992,0,0,4.768705368041992,156.98410034179688,11.050915718078613)"><path d="M3.70 4.98L3.71 7.55L3.71 7.55Q3.71 8.34 4.33 8.34L4.33 8.34L4.33 8.34Q4.54 8.34 4.70 8.21L4.70 8.21L4.70 8.21Q4.86 8.08 4.94 7.84L4.94 7.84L4.94 7.84Q5.03 7.60 5.03 7.29L5.03 7.29L5.03 5.42L5.03 5.42Q5.03 4.94 5.19 4.58L5.19 4.58L5.19 4.58Q5.36 4.23 5.68 4.03L5.68 4.03L5.68 4.03Q6.01 3.84 6.44 3.84L6.44 3.84L6.44 3.84Q7.20 3.84 7.62 4.17L7.62 4.17L7.62 4.17Q8.04 4.49 8.04 5.38L8.04 5.38L8.04 9.02L8.04 9.02Q8.04 9.87 7.69 10.19L7.69 10.19L7.69 10.19Q7.34 10.51 6.45 10.51L6.45 10.51L6.45 10.51Q6.08 10.51 5.81 10.44L5.81 10.44L5.81 10.44Q5.54 10.36 5.38 10.21L5.38 10.21L5.38 10.21Q5.22 10.05 5.14 9.80L5.14 9.80L5.14 9.80Q4.56 10.18 3.93 10.33L3.93 10.33L3.93 10.33Q3.29 10.49 2.51 10.49L2.51 10.49L2.51 10.49Q1.51 10.49 1.08 9.71L1.08 9.71L1.08 9.71Q0.64 8.93 0.64 7.15L0.64 7.15L0.64 7.15Q0.64 6.27 0.69 5.72L0.69 5.72L0.69 5.72Q0.73 5.17 0.82 4.77L0.82 4.77L0.82 4.77Q0.91 4.37 1.10 4.17L1.10 4.17L1.10 4.17Q1.29 3.98 1.55 3.89L1.55 3.89L1.55 3.89Q1.81 3.81 2.23 3.81L2.23 3.81L2.23 3.81Q3.01 3.81 3.35 4.10L3.35 4.10L3.35 4.10Q3.70 4.40 3.70 4.98L3.70 4.98ZM12.49 10.11L12.49 11.31L12.49 11.31Q12.49 12.45 12.11 12.93L12.11 12.93L12.11 12.93Q11.73 13.41 10.95 13.41L10.95 13.41L10.95 13.41Q10.16 13.41 9.80 12.97L9.80 12.97L9.80 12.97Q9.44 12.53 9.44 11.41L9.44 11.41L9.41 5.50L9.41 5.50Q9.41 4.63 9.83 4.23L9.83 4.23L9.83 4.23Q10.25 3.82 10.95 3.82L10.95 3.82L10.95 3.82Q11.49 3.82 11.83 3.96L11.83 3.96L11.83 3.96Q12.17 4.09 12.33 4.48L12.33 4.48L12.33 4.48Q13.30 3.72 14.41 3.72L14.41 3.72L14.41 3.72Q15.53 3.72 16.24 4.66L16.24 4.66L16.24 4.66Q16.95 5.60 16.95 7.21L16.95 7.21L16.95 7.21Q16.95 8.78 16.23 9.68L16.23 9.68L16.23 9.68Q15.50 10.58 14.39 10.58L14.39 10.58L14.39 10.58Q13.33 10.58 12.49 10.11L12.49 10.11ZM12.49 5.87L12.49 8.47L12.49 8.47Q12.73 8.86 13.12 8.86L13.12 8.86L13.12 8.86Q13.50 8.86 13.71 8.36L13.71 8.36L13.71 8.36Q13.92 7.85 13.92 7.21L13.92 7.21L13.92 7.21Q13.92 6.52 13.69 5.99L13.69 5.99L13.69 5.99Q13.47 5.46 13.10 5.46L13.10 5.46L13.10 5.46Q12.73 5.46 12.49 5.87L12.49 5.87ZM24.07 3.54L24.07 3.54L24.07 3.54Q24.07 3.25 23.82 3.04L23.82 3.04L23.82 3.04Q23.58 2.83 23.24 2.83L23.24 2.83L23.24 2.83Q22.57 2.83 22.13 3.59L22.13 3.59L22.13 3.59Q21.70 4.35 21.70 5.32L21.70 5.32L21.70 5.32Q21.70 6.06 21.98 6.66L21.98 6.66L21.98 6.66Q22.26 7.25 22.79 7.60L22.79 7.60L22.79 7.60Q23.32 7.95 24.02 7.95L24.02 7.95L24.02 7.95Q24.54 7.95 25.02 7.75L25.02 7.75L25.02 7.75Q25.49 7.55 25.79 7.30L25.79 7.30L25.79 7.30Q26.08 7.06 26.40 6.85L26.40 6.85L26.40 6.85Q26.71 6.65 26.95 6.65L26.95 6.65L26.95 6.65Q27.26 6.65 27.48 6.89L27.48 6.89L27.48 6.89Q27.71 7.14 27.71 7.41L27.71 7.41L27.71 7.41Q27.71 7.70 27.53 8.09L27.53 8.09L27.53 8.09Q27.36 8.48 26.98 8.93L26.98 8.93L26.98 8.93Q26.60 9.37 26.10 9.74L26.10 9.74L26.10 9.74Q25.59 10.11 24.84 10.35L24.84 10.35L24.84 10.35Q24.09 10.60 23.27 10.60L23.27 10.60L23.27 10.60Q22.18 10.60 21.25 10.27L21.25 10.27L21.25 10.27Q20.31 9.94 19.63 9.33L19.63 9.33L19.63 9.33Q18.94 8.72 18.55 7.80L18.55 7.80L18.55 7.80Q18.16 6.87 18.16 5.73L18.16 5.73L18.16 5.73Q18.16 3.46 19.52 2.14L19.52 2.14L19.52 2.14Q20.87 0.83 23.07 0.83L23.07 0.83L23.07 0.83Q24.19 0.83 25.14 1.20L25.14 1.20L25.14 1.20Q26.10 1.58 26.66 2.25L26.66 2.25L26.66 2.25Q27.22 2.93 27.22 3.72L27.22 3.72L27.22 3.72Q27.22 4.65 26.60 5.40L26.60 5.40L26.60 5.40Q25.98 6.15 25.00 6.15L25.00 6.15L25.00 6.15Q24.44 6.15 24.00 5.84L24.00 5.84L24.00 5.84Q23.55 5.53 23.55 4.96L23.55 4.96L23.55 4.96Q23.55 4.69 23.81 4.21L23.81 4.21L23.81 4.21Q24.07 3.74 24.07 3.54ZM32.13 2.46L32.13 8.39L32.13 8.39Q32.13 9.52 31.75 10.01L31.75 10.01L31.75 10.01Q31.37 10.50 30.59 10.50L30.59 10.50L30.59 10.50Q29.81 10.50 29.44 10.06L29.44 10.06L29.44 10.06Q29.08 9.62 29.08 8.50L29.08 8.50L29.05 2.59L29.05 2.59Q29.05 2.23 29.13 1.95L29.13 1.95L29.13 1.95Q29.20 1.67 29.34 1.47L29.34 1.47L29.34 1.47Q29.47 1.27 29.67 1.15L29.67 1.15L29.67 1.15Q29.86 1.02 30.09 0.97L30.09 0.97L30.09 0.97Q30.32 0.91 30.59 0.91L30.59 0.91L30.59 0.91Q31.36 0.91 31.75 1.22L31.75 1.22L31.75 1.22Q32.13 1.53 32.13 2.46L32.13 2.46ZM37.94 7.18L37.94 7.18L37.94 7.18Q37.94 6.45 37.76 5.90L37.76 5.90L37.76 5.90Q37.58 5.35 37.23 5.35L37.23 5.35L37.23 5.35Q36.99 5.35 36.81 5.63L36.81 5.63L36.81 5.63Q36.62 5.91 36.54 6.31L36.54 6.31L36.54 6.31Q36.46 6.72 36.46 7.18L36.46 7.18L36.46 7.18Q36.46 7.90 36.65 8.44L36.65 8.44L36.65 8.44Q36.85 8.97 37.21 8.97L37.21 8.97L37.21 8.97Q37.58 8.97 37.76 8.44L37.76 8.44L37.76 8.44Q37.94 7.91 37.94 7.18ZM37.21 10.60L37.21 10.60L37.21 10.60Q36.12 10.60 35.25 10.21L35.25 10.21L35.25 10.21Q34.37 9.81 33.84 9.03L33.84 9.03L33.84 9.03Q33.32 8.25 33.32 7.20L33.32 7.20L33.32 7.20Q33.32 5.60 34.41 4.66L34.41 4.66L34.41 4.66Q35.50 3.72 37.21 3.72L37.21 3.72L37.21 3.72Q38.92 3.72 40.00 4.66L40.00 4.66L40.00 4.66Q41.08 5.60 41.08 7.20L41.08 7.20L41.08 7.20Q41.08 8.78 39.98 9.69L39.98 9.69L39.98 9.69Q38.88 10.60 37.21 10.60ZM45.30 4.98L45.32 7.55L45.32 7.55Q45.32 8.34 45.93 8.34L45.93 8.34L45.93 8.34Q46.14 8.34 46.31 8.21L46.31 8.21L46.31 8.21Q46.47 8.08 46.55 7.84L46.55 7.84L46.55 7.84Q46.63 7.60 46.63 7.29L46.63 7.29L46.63 5.42L46.63 5.42Q46.63 4.94 46.80 4.58L46.80 4.58L46.80 4.58Q46.97 4.23 47.29 4.03L47.29 4.03L47.29 4.03Q47.61 3.84 48.05 3.84L48.05 3.84L48.05 3.84Q48.80 3.84 49.22 4.17L49.22 4.17L49.22 4.17Q49.64 4.49 49.64 5.38L49.64 5.38L49.64 9.02L49.64 9.02Q49.64 9.87 49.29 10.19L49.29 10.19L49.29 10.19Q48.94 10.51 48.06 10.51L48.06 10.51L48.06 10.51Q47.68 10.51 47.42 10.44L47.42 10.44L47.42 10.44Q47.15 10.36 46.99 10.21L46.99 10.21L46.99 10.21Q46.83 10.05 46.75 9.80L46.75 9.80L46.75 9.80Q46.17 10.18 45.54 10.33L45.54 10.33L45.54 10.33Q44.90 10.49 44.11 10.49L44.11 10.49L44.11 10.49Q43.12 10.49 42.69 9.71L42.69 9.71L42.69 9.71Q42.25 8.93 42.25 7.15L42.25 7.15L42.25 7.15Q42.25 6.27 42.29 5.72L42.29 5.72L42.29 5.72Q42.34 5.17 42.43 4.77L42.43 4.77L42.43 4.77Q42.52 4.37 42.71 4.17L42.71 4.17L42.71 4.17Q42.90 3.98 43.16 3.89L43.16 3.89L43.16 3.89Q43.41 3.81 43.83 3.81L43.83 3.81L43.83 3.81Q44.62 3.81 44.96 4.10L44.96 4.10L44.96 4.10Q45.30 4.40 45.30 4.98L45.30 4.98ZM58.46 2.46L58.46 8.40L58.46 8.40Q58.46 9.53 58.09 10.02L58.09 10.02L58.09 10.02Q57.71 10.50 56.92 10.50L56.92 10.50L56.92 10.50Q56.03 10.50 55.69 9.94L55.69 9.94L55.69 9.94Q54.78 10.60 53.49 10.60L53.49 10.60L53.49 10.60Q52.40 10.60 51.67 9.70L51.67 9.70L51.67 9.70Q50.95 8.79 50.95 7.22L50.95 7.22L50.95 7.22Q50.95 5.63 51.66 4.68L51.66 4.68L51.66 4.68Q52.37 3.74 53.49 3.74L53.49 3.74L53.49 3.74Q54.50 3.74 55.38 4.38L55.38 4.38L55.38 2.59L55.38 2.59Q55.38 1.74 55.80 1.32L55.80 1.32L55.80 1.32Q56.22 0.91 56.92 0.91L56.92 0.91L56.92 0.91Q57.69 0.91 58.08 1.22L58.08 1.22L58.08 1.22Q58.46 1.53 58.46 2.46L58.46 2.46ZM55.41 8.48L55.41 8.48L55.40 5.87L55.40 5.87Q55.16 5.47 54.78 5.47L54.78 5.47L54.78 5.47Q54.54 5.47 54.36 5.74L54.36 5.74L54.36 5.74Q54.17 6.01 54.07 6.40L54.07 6.40L54.07 6.40Q53.97 6.79 53.97 7.22L53.97 7.22L53.97 7.22Q53.97 7.87 54.18 8.37L54.18 8.37L54.18 8.37Q54.39 8.88 54.77 8.88L54.77 8.88L54.77 8.88Q54.84 8.88 54.91 8.86L54.91 8.86L54.91 8.86Q54.98 8.85 55.03 8.83L55.03 8.83L55.03 8.83Q55.09 8.81 55.15 8.77L55.15 8.77L55.15 8.77Q55.20 8.74 55.24 8.69L55.24 8.69L55.24 8.69Q55.29 8.65 55.33 8.60L55.33 8.60L55.33 8.60Q55.37 8.54 55.41 8.48Z"></path></g><defs data-v-423bf9ae=""><linearGradient data-v-423bf9ae="" gradientTransform="rotate(25)" id="64042e63-9f64-48c4-bcbc-cdcb496a9052" x1="0%" y1="0%" x2="100%" y2="0%"><stop data-v-423bf9ae="" offset="0%" style="stop-color: rgb(255, 255, 255); stop-opacity: 1;"></stop><stop data-v-423bf9ae="" offset="100%" style="stop-color: rgb(12, 38, 170); stop-opacity: 1;"></stop></linearGradient></defs><g data-v-423bf9ae="" id="a896ba8f-f1c7-4280-a1c8-1a3fd4342702" transform="matrix(5,0,0,5,-8.98828125,-35)" stroke="none" fill="url(#64042e63-9f64-48c4-bcbc-cdcb496a9052)"><g data-name="cloud up"><path d="M25.2 13.17a4.33 4.33 0 0 0-1.48.13c-.37-3.54-3-6.3-6.16-6.3a5.89 5.89 0 0 0-4.69 2.49c-3-.3-5.53 1.81-6.39 4.91a3.61 3.61 0 0 0-1.59.21A4.89 4.89 0 0 0 2 19.37C2 22.47 4.2 25 6.91 25H13a1 1 0 0 0 1-1v-3.69a1 1 0 0 0-.91-1L15 17l1.9 2.34a1 1 0 0 0-.9 1V24a1 1 0 0 0 1 1h8.09C27.8 25 30 22.47 30 19.37c0-3.26-2.11-5.98-4.8-6.2zM25.09 23H18v-1.69h1a1 1 0 0 0 .9-.57 1 1 0 0 0-.12-1.06l-4-4.93a1.05 1.05 0 0 0-1.56 0l-4 4.93a1 1 0 0 0-.12 1.06 1 1 0 0 0 .9.57h1V23H6.91C5.31 23 4 21.37 4 19.33a3 3 0 0 1 1.58-2.85 1.61 1.61 0 0 1 1.25.07 1 1 0 0 0 .9 0 1 1 0 0 0 .5-.74c.34-2.5 2.08-4.32 4.13-4.32a3.49 3.49 0 0 1 .76.09 1 1 0 0 0 1.08-.45A4 4 0 0 1 17.56 9c2.32 0 4.2 2.31 4.2 5.15v.63a1 1 0 0 0 .5 1 1 1 0 0 0 1.08-.05 2.61 2.61 0 0 1 1.66-.57c1.63.13 3 2 3 4.21 0 2-1.31 3.63-2.91 3.63z"></path><circle cx="22" cy="20" r="1"></circle><circle cx="25" cy="20" r="1"></circle></g></g><!----></svg>